<?xml version="1.0" encoding="UTF-8"?>
<svg version="1.1" xmlns="http://www.w3.org/2000/svg" width="866" height="650">
<path d="M0 0 C285.78 0 571.56 0 866 0 C866 214.5 866 429 866 650 C580.22 650 294.44 650 0 650 C0 435.5 0 221 0 0 Z " fill="#0B0480" transform="translate(0,0)"/>
<path d="M0 0 C285.78 0 571.56 0 866 0 C866 214.5 866 429 866 650 C580.22 650 294.44 650 0 650 C0 435.5 0 221 0 0 Z M378 64 C376.86208008 64.10183594 375.72416016 64.20367187 374.55175781 64.30859375 C334.34826769 67.92992564 295.25116045 76.19023138 257 89 C255.94055176 89.35143066 254.88110352 89.70286133 253.78955078 90.06494141 C214.54415271 103.21205791 177.11369185 122.1072247 144 147 C143.15912842 147.62672607 143.15912842 147.62672607 142.30126953 148.26611328 C133.82582114 154.61852506 126.03149699 161.52195414 118.375 168.8359375 C116.23768412 170.87149094 114.0632946 172.80893912 111.77734375 174.67578125 C109.44991315 176.6234904 107.51165927 178.5036455 105.5625 180.8125 C104.97210938 181.50601563 104.38171875 182.19953125 103.7734375 182.9140625 C103.18820313 183.60242188 102.60296875 184.29078125 102 185 C100.8961278 186.22943112 99.79195846 187.45859552 98.6875 188.6875 C80.06717204 210.15661428 64.76687661 235.53322945 57 263 C56.81743652 263.64243652 56.63487305 264.28487305 56.44677734 264.94677734 C51.92115825 281.12773977 50.64731789 296.84181877 50.68432617 313.57641602 C50.68746944 316.53374742 50.66399759 319.49005815 50.63867188 322.44726562 C50.45578255 378.07509084 72.43860565 428.98747692 109.90234375 469.71484375 C111.33161268 471.27186857 112.73982591 472.84842421 114.12890625 474.44140625 C123.94548158 485.6628582 135.12409283 495.05431792 147 504 C147.67804688 504.51320801 148.35609375 505.02641602 149.0546875 505.55517578 C185.54776373 533.01688401 227.4540653 551.8121457 271 565 C272.1653125 565.35835937 273.330625 565.71671875 274.53125 566.0859375 C284.2617809 568.98192884 294.14138074 571.20719073 304.05810547 573.35888672 C305.97008912 573.77555635 307.88067672 574.19870336 309.78955078 574.62939453 C350.596873 583.80691609 392.22381319 586.14359832 433.9192543 586.24453354 C435.89819203 586.24989353 437.87712116 586.2581722 439.85604858 586.26651001 C456.43401422 586.31847196 472.81569204 585.74232407 489.32693481 584.24053955 C491.62656555 584.03360403 493.92609881 583.84332047 496.22827148 583.66748047 C550.52372047 579.47793585 604.38497561 565.33709027 654 543 C654.84626953 542.62697754 655.69253906 542.25395508 656.56445312 541.86962891 C678.10400475 532.35589232 698.09509597 519.98648595 717 506 C717.65145996 505.51966309 718.30291992 505.03932617 718.97412109 504.54443359 C728.61597782 497.37093291 737.36101588 489.33900324 746 481 C746.57669434 480.45053711 747.15338867 479.90107422 747.74755859 479.33496094 C755.48119665 471.95416318 762.33167062 464.22047442 768.74316406 455.66699219 C769.93262623 454.08936055 771.14916732 452.53225164 772.3671875 450.9765625 C778.27274053 443.35451654 783.23812141 435.36295488 788 427 C788.3388623 426.41412109 788.67772461 425.82824219 789.02685547 425.22460938 C797.94646998 409.7099651 804.46147887 393.33772448 808.875 376 C809.28600952 374.40248901 809.28600952 374.40248901 809.70532227 372.77270508 C813.93470024 355.18200953 815.49084593 337.57066991 815.33618164 319.51098633 C815.31231088 316.53895357 815.31569286 313.56780956 815.32226562 310.59570312 C815.3027145 296.62410868 814.4960637 283.10420897 810.75 269.5625 C810.53384033 268.76666504 810.31768066 267.97083008 810.0949707 267.15087891 C807.88398979 259.23548843 805.18291746 251.57456132 802 244 C801.71817871 243.32791504 801.43635742 242.65583008 801.14599609 241.96337891 C790.42372982 216.87765708 773.93932735 195.39868656 755 176 C753.99586405 174.95595004 752.99194071 173.91169553 751.98828125 172.8671875 C746.01096114 166.74491099 739.70119899 161.30840077 733 156 C731.86683026 155.06711609 730.73540209 154.13211381 729.60546875 153.1953125 C720.1760549 145.42841294 710.29793496 138.5635973 700 132 C699.39816895 131.61279785 698.79633789 131.2255957 698.17626953 130.82666016 C662.479222 108.02106573 622.53704066 92.65600102 582 81 C580.81535156 80.65727051 579.63070312 80.31454102 578.41015625 79.96142578 C514.01527507 61.70397372 444.44890298 57.56753972 378 64 Z " fill="#FEFEFE" transform="translate(0,0)"/>
<path d="M0 0 C0.67740234 0.14953125 1.35480469 0.2990625 2.05273438 0.453125 C16.87675645 3.74396649 30.94846201 9.81802442 44.86035156 15.77636719 C97.62345193 38.2865723 158.91631345 41.95529398 213 21 C214.73279395 20.34171313 216.46588433 19.68420619 218.19921875 19.02734375 C220.02872964 18.33094928 221.85815555 17.63433156 223.6875 16.9375 C225.07291992 16.4105957 225.07291992 16.4105957 226.48632812 15.87304688 C227.38158203 15.53208984 228.27683594 15.19113281 229.19921875 14.83984375 C230.40324341 14.38146118 230.40324341 14.38146118 231.6315918 13.91381836 C233.32318437 13.26114018 235.00337008 12.57857907 236.67504883 11.87646484 C239.42110016 10.8412528 240.3282912 10.84678194 243 12 C255.39708891 20.58416847 265.74457606 32.22884003 275 44 C275.59288818 44.72131104 276.18577637 45.44262207 276.79663086 46.18579102 C281.63968613 52.11467036 285.97486921 58.21695059 290.0625 64.6875 C290.97418945 66.12923584 290.97418945 66.12923584 291.90429688 67.60009766 C296.62797713 75.18411598 300.62443422 82.72530225 304 91 C304.38526855 91.90564697 304.38526855 91.90564697 304.77832031 92.82958984 C320.91075544 130.91287845 319.5048099 173.51201375 304.1875 211.578125 C295.33688726 232.75249053 282.60139841 251.24294245 267 268 C265.8705773 269.30869615 264.74541241 270.62108164 263.625 271.9375 C255.82775869 280.84863293 247.32629957 288.71894157 238 296 C237.39446289 296.48194824 236.78892578 296.96389648 236.16503906 297.46044922 C221.0473109 309.48642584 204.92458667 319.70658857 188 329 C187.36449219 329.35126953 186.72898437 329.70253906 186.07421875 330.06445312 C156.35600722 346.42389578 124.61646418 357.94827776 92 367 C90.96601074 367.28713867 89.93202148 367.57427734 88.86669922 367.87011719 C9.60881499 389.51557462 -77.37988391 391.35455402 -178.6875 370.9375 C-179.39222443 370.7777771 -180.09694885 370.6180542 -180.82302856 370.45349121 C-195.44297433 367.10856512 -209.84222577 362.95522098 -224 358 C-224.7425 357.74412109 -225.485 357.48824219 -226.25 357.22460938 C-267.76996283 342.85480974 -306.94446448 322.92185115 -341 295 C-341.56928223 294.53513184 -342.13856445 294.07026367 -342.72509766 293.59130859 C-356.01623649 282.66836816 -368.60670186 270.75167679 -379 257 C-379.48146484 256.37319336 -379.96292969 255.74638672 -380.45898438 255.10058594 C-398.28906933 231.77672941 -410.24889808 206.81701869 -416 178 C-416.36931641 176.25783203 -416.36931641 176.25783203 -416.74609375 174.48046875 C-418.88997379 162.48952592 -418.17786129 150.13014006 -418 138 C-410.41912755 139.02026918 -402.97649518 140.59892105 -395.5 142.1875 C-394.76524445 142.343396 -394.03048889 142.49929199 -393.27346802 142.65991211 C-380.40967997 145.39973462 -367.66704026 148.45071596 -355 152 C-354.03868164 152.26780273 -353.07736328 152.53560547 -352.08691406 152.81152344 C-320.48628723 161.67044957 -287.38988414 171.34371664 -260 190 C-260.23976563 191.24523437 -260.23976563 191.24523437 -260.484375 192.515625 C-262.20559583 204.14690514 -262.17998571 216.42024332 -255.1875 226.3125 C-249.4076671 233.35004715 -241.1875564 239.42353737 -232 241 C-229.75092848 241.06790675 -227.49998395 241.08499984 -225.25 241.0625 C-223.49429688 241.04896484 -223.49429688 241.04896484 -221.703125 241.03515625 C-220.81109375 241.02355469 -219.9190625 241.01195312 -219 241 C-218.67128906 241.89460937 -218.34257812 242.78921875 -218.00390625 243.7109375 C-213.48483587 255.1984389 -207.01358829 264.79045242 -195.7578125 270.703125 C-188.70211183 273.70748787 -183.65046634 275.307409 -175.9375 274.8125 C-169.57279254 274.50720642 -169.57279254 274.50720642 -166.90234375 276.8046875 C-165.40470337 279.1411597 -164.19584836 281.49843736 -163 284 C-156.98469184 290.99076354 -149.04626783 296.05372583 -140 298 C-137.60064766 298.02729921 -135.29684076 297.8374786 -132.91015625 297.6015625 C-128.86507133 297.22131141 -124.96609495 296.99370496 -121 298 C-117.78530427 300.9409167 -116.08422502 303.81436041 -114.02734375 307.58984375 C-109.15619035 315.78351796 -99.909934 320.3087742 -91 323 C-78.91691217 325.78117729 -66.97069329 323.25116942 -56.375 316.875 C-55.61960937 316.37742187 -54.86421875 315.87984375 -54.0859375 315.3671875 C-53.05339844 314.69042969 -53.05339844 314.69042969 -52 314 C-51.401875 313.54496094 -50.80375 313.08992188 -50.1875 312.62109375 C-46.5841933 311.59801203 -43.80599838 313.59320578 -40.625 315.1875 C-25.489835 322.24839399 -9.83790428 324.70587455 6.21875 319.1328125 C11.13758756 317.12935338 14.37513242 314.91583644 17.5 310.6875 C18.325 309.800625 19.15 308.91375 20 308 C22.6875 308.125 22.6875 308.125 26 309 C37.10845223 309.97785671 45.97708643 307.38658124 54.80859375 300.62109375 C57 299 57 299 59.22265625 297.890625 C61.64391692 296.67733394 61.92915178 295.4763365 63 293 C65 289.5625 65 289.5625 66 287.87890625 C67.18684885 285.64892853 68.09462059 283.35641158 69 281 C70.08796875 280.98582031 71.1759375 280.97164063 72.296875 280.95703125 C86.39864548 280.57873033 98.42177074 277.03357978 108.96875 267.15625 C115.34942776 260.34298391 118.32697311 253.2541197 119 244 C121.95327118 243.01557627 123.18931234 243.02294276 126.1875 243.25 C136.7926029 243.34330003 149.11988588 239.13924869 157 232 C164.79876333 223.85615865 166.51961763 215.37727374 166.3046875 204.3203125 C165.91116207 200.03189432 164.76817957 196.90472989 163 193 C163 192.01 163 191.02 163 190 C196.46012858 175.55501766 231.66905521 163.88529115 267 155 C268.49811178 154.6157955 269.99598234 154.23064959 271.49365234 153.84472656 C276.34728119 152.59429217 281.20408085 151.35668058 286.0625 150.125 C287.20691559 149.83387329 287.20691559 149.83387329 288.37445068 149.53686523 C297.20325514 147.30002721 305.98333247 145.35428208 315 144 C314.34 138.72 313.68 133.44 313 128 C305.05461496 129.75913802 305.05461496 129.75913802 297.11157227 131.52880859 C286.19031929 133.97008759 286.19031929 133.97008759 280.78515625 135.08984375 C241.79060578 143.31104052 203.33099291 155.95217059 166.40405273 170.84936523 C165.73513 171.11892532 165.06620728 171.38848541 164.37701416 171.66621399 C162.56984186 172.39656392 160.76470363 173.13194127 158.9597168 173.86767578 C154.11064503 175.72282672 154.11064503 175.72282672 152 176 C149.58984375 174.2265625 149.58984375 174.2265625 146.9375 171.625 C145.96062939 170.68900402 144.98140043 169.75546407 144 168.82421875 C143.50242187 168.34903809 143.00484375 167.87385742 142.4921875 167.38427734 C140.23177941 165.28733463 137.84138988 163.36675821 135.4375 161.4375 C130.99006552 157.84801032 126.74593009 154.09171544 122.5234375 150.2421875 C119.94917642 147.95484096 117.30710511 145.78451729 114.625 143.625 C110.6117345 140.38047268 106.77586874 137.01250676 103 133.5 C98.44351624 129.26553697 93.74438084 125.27138383 88.90234375 121.3671875 C85.61993931 118.6900178 82.39899783 115.9489536 79.1875 113.1875 C78.60073486 112.6831543 78.01396973 112.17880859 77.40942383 111.65917969 C75.00112227 109.58714145 72.59484795 107.51275573 70.18847656 105.43847656 C63.47359625 99.65329304 56.72577754 93.93033706 49.84375 88.34375 C46.52312733 85.60697307 43.25975434 82.80872192 40 80 C34.07664848 74.90262339 28.09127706 69.89657907 22 65 C21.47470703 64.57364258 20.94941406 64.14728516 20.40820312 63.70800781 C13.83225175 58.37895503 7.15509278 53.28136575 0.125 48.5625 C-0.46893555 48.16168213 -1.06287109 47.76086426 -1.67480469 47.34790039 C-15.91786589 37.96150905 -30.7968683 35.88010062 -47.625 38.58203125 C-60.98083561 42.23819125 -73.19072333 50.59450795 -84 59 C-84.66306152 59.51344971 -85.32612305 60.02689941 -86.00927734 60.5559082 C-89.81050329 63.5035212 -93.59645694 66.46846968 -97.359375 69.46484375 C-114.91643452 83.39172128 -130.6519412 94.47801757 -154 93 C-160.87129249 91.8472799 -166.34834722 88.99404512 -172 85 C-170.48512453 80.16509804 -167.73326972 77.02859386 -164.4375 73.3125 C-163.89955811 72.69528076 -163.36161621 72.07806152 -162.80737305 71.44213867 C-158.96944553 67.0522703 -155.05789576 62.72993297 -151.1328125 58.41796875 C-148.89676787 55.88296577 -146.79253744 53.26950044 -144.6875 50.625 C-137.38099226 41.60682786 -128.98502749 33.34400077 -120 26 C-119.07058594 25.23171875 -118.14117187 24.4634375 -117.18359375 23.671875 C-99.29042801 9.20577677 -79.58605564 0.93114262 -57 -3 C-55.92878906 -3.19335938 -54.85757812 -3.38671875 -53.75390625 -3.5859375 C-35.63380932 -5.58461625 -17.67962641 -4.15641931 0 0 Z " fill="#2ABCFE" transform="translate(484,158)"/>
<path d="M0 0 C4.14222543 0.48160195 7.82584512 1.52563462 11.7265625 2.96875 C12.82693848 3.3706958 13.92731445 3.7726416 15.06103516 4.18676758 C16.23714355 4.62013428 17.41325195 5.05350098 18.625 5.5 C92.94539584 32.94819272 92.94539584 32.94819272 170.34375 28.984375 C170.9956279 28.80314087 171.6475058 28.62190674 172.31913757 28.43518066 C175.63089156 27.51042517 178.93717563 26.5700712 182.23754883 25.60546875 C184.06322388 25.08146484 184.06322388 25.08146484 185.92578125 24.546875 C187.02317627 24.22557617 188.12057129 23.90427734 189.2512207 23.57324219 C192 23 192 23 195 24 C194.28251587 24.70962891 194.28251587 24.70962891 193.55053711 25.43359375 C191.3434466 27.61964406 189.14046367 29.80979129 186.9375 32 C186.18533203 32.74378906 185.43316406 33.48757812 184.65820312 34.25390625 C178.90939258 39.97783017 173.52301281 45.9203971 168.375 52.1875 C166.03970715 54.95297837 163.55871273 57.44128727 161 60 C159.59285425 61.51037266 158.19785111 63.03211213 156.8125 64.5625 C156.13832031 65.30628906 155.46414063 66.05007812 154.76953125 66.81640625 C152.24220176 69.93511969 151.12299252 72.21592267 150.5 76.1875 C151.28568752 82.17836738 154.23871226 86.52673774 158.72265625 90.54296875 C171.7489391 99.53138048 189.75229816 100.45762134 205 99 C220.57016831 95.92084995 234.10348191 84.11140514 246.18164062 74.45019531 C285.64459041 42.9773272 285.64459041 42.9773272 309.80078125 44.6875 C320.75808046 46.24448745 330.6057248 53.25608442 339 60 C340.09594616 60.84597004 341.19369729 61.68960544 342.29296875 62.53125 C349.02179298 67.71103987 355.53989529 73.10275127 361.96020508 78.65917969 C365.430444 81.66220548 368.9353531 84.6086173 372.5 87.5 C380.55211624 94.04160109 388.41190515 100.82012012 396.1875 107.6875 C399.16608943 110.31119367 402.22575847 112.81702164 405.3125 115.3125 C410.12247132 119.22018704 414.69152252 123.33537868 419.25 127.53125 C421.93737634 129.94378104 424.68965444 132.2325621 427.5 134.5 C432.25595419 138.33719031 436.75504801 142.39385101 441.25 146.53125 C443.93737634 148.94378104 446.68965444 151.2325621 449.5 153.5 C454.31478346 157.3875427 458.89547268 161.47977718 463.453125 165.6640625 C465.59735739 167.63070509 467.75353713 169.57775169 469.9375 171.5 C470.56011719 172.05042969 471.18273437 172.60085938 471.82421875 173.16796875 C473.51695175 174.59326817 475.25939117 175.95961371 477.01953125 177.30078125 C484.47871611 183.03678925 488.67126184 187.84897279 490.4296875 197.3125 C490.91890996 202.94834279 489.02833826 206.57952079 485.71484375 211.0546875 C479.93422821 217.6121967 472.53125346 219.52879277 464.1328125 220.0859375 C457.3922018 219.90103297 452.11561738 217.42811738 447.375 212.6875 C446.82199219 212.08035156 446.26898437 211.47320312 445.69921875 210.84765625 C443.96004711 208.95655697 442.13449532 207.29996005 440.1875 205.625 C437.2125649 203.0596162 434.28280336 200.45379438 431.375 197.8125 C426.8289491 193.71064339 422.20220877 189.71282903 417.54248047 185.74145508 C414.33747518 183.00874353 411.1474544 180.26111959 407.98046875 177.484375 C407.3155542 176.90268555 406.65063965 176.32099609 405.96557617 175.72167969 C404.69112246 174.60536525 403.41899905 173.48638258 402.1496582 172.36425781 C398.59512081 169.25617696 395.06672134 166.41424956 391 164 C388.68973726 164.11443256 388.68973726 164.11443256 387 165 C387.23873697 171.63087968 389.53058067 174.36597719 394.23046875 178.8515625 C394.85850906 179.4734848 395.48654938 180.0954071 396.13362122 180.73617554 C398.13790966 182.7136209 400.16231575 184.66898484 402.1875 186.625 C403.53061688 187.94657648 404.87242826 189.26948114 406.21289062 190.59375 C413.04902555 197.37627505 413.04902555 197.37627505 420.27856445 203.72802734 C423 206 423 206 425.4375 208.9375 C427.39751821 211.27996079 429.0599458 212.97242762 431.375 214.875 C436.75798402 219.35100422 443.37488382 225.08025445 444.30078125 232.3671875 C444.33791549 240.31391448 442.13023369 245.37802037 436.8828125 251.32421875 C430.79363838 256.74383638 423.17737112 259.15083062 415.1875 259.3125 C413.98480469 259.34988281 412.78210938 259.38726562 411.54296875 259.42578125 C403.48156758 258.45699103 398.52203055 251.73319667 393.125 246.1875 C388.2002858 241.15067173 383.25900423 236.24757902 377.91113281 231.65942383 C376.00817704 230.00710007 374.16473838 228.30783498 372.33203125 226.578125 C371.74873047 226.02769531 371.16542969 225.47726562 370.56445312 224.91015625 C369.38250636 223.7901398 368.20286706 222.66768394 367.02539062 221.54296875 C360.97714282 215.69704752 360.97714282 215.69704752 353 214 C352.56944283 216.95498183 352.47059327 219.14197108 354.07373047 221.74023438 C355.63241949 223.6439607 357.25783776 225.45208102 358.9375 227.25 C359.52998535 227.90750244 360.1224707 228.56500488 360.73291016 229.24243164 C362.47637929 231.17319026 364.23724082 233.08686814 366 235 C367.62671403 236.81096182 369.25199055 238.62321734 370.875 240.4375 C371.58398438 241.22125 372.29296875 242.005 373.0234375 242.8125 C392.40547318 264.26297427 392.40547318 264.26297427 393.4375 270.75 C392.68626862 276.330576 389.62012288 280.28729867 385.8125 284.3125 C379.42000102 288.14799939 371.45276692 290.34784083 364 289 C357.88688281 286.75329881 354.03716557 282.34273462 349.625 277.75 C344.27524871 272.23667718 338.84135819 266.99006659 333 262 C331.92187682 261.04443378 330.84496236 260.08750123 329.76953125 259.12890625 C328.79371094 258.28199219 327.81789063 257.43507813 326.8125 256.5625 C325.82894531 255.69753906 324.84539062 254.83257812 323.83203125 253.94140625 C320.8258797 251.88063753 319.54930322 251.52632699 316 252 C316.30722631 258.10612283 318.28324112 261.14712585 322.5 265.3125 C323.60083819 266.44996195 324.70109369 267.5879881 325.80078125 268.7265625 C326.61796631 269.55849121 326.61796631 269.55849121 327.45166016 270.40722656 C330.33881114 273.37723176 333.06737075 276.48885897 335.81640625 279.5859375 C337.37481673 281.30883138 338.97049874 282.99831092 340.58984375 284.6640625 C341.42644531 285.53804688 342.26304687 286.41203125 343.125 287.3125 C343.89070313 288.09238281 344.65640625 288.87226563 345.4453125 289.67578125 C347 292 347 292 347.01171875 294.65234375 C346 297 346 297 344.07421875 298.328125 C343.28660156 298.63234375 342.49898438 298.9365625 341.6875 299.25 C340.90761719 299.56453125 340.12773437 299.8790625 339.32421875 300.203125 C326.39725768 304.63522594 313.88915123 300.68844953 301.984375 294.98828125 C301.32953125 294.66214844 300.6746875 294.33601563 300 294 C300.89405204 287.35847053 300.89405204 287.35847053 301.51953125 285.2421875 C303.66505182 275.22975817 302.71097678 263.4656234 297.60546875 254.5703125 C296.14188998 252.31010225 294.62749971 250.14479791 293 248 C292.38640625 247.16339844 291.7728125 246.32679688 291.140625 245.46484375 C282.64918125 235.68728717 270.28401824 232.57013767 258 231 C257.90525391 229.40285156 257.90525391 229.40285156 257.80859375 227.7734375 C256.95127605 216.65791443 254.94834072 206.50050737 247.1484375 197.9765625 C239.26518768 191.58561511 229.28107242 187.82008537 219.25 187.875 C218.5590625 187.87113281 217.868125 187.86726562 217.15625 187.86328125 C213.64771549 187.86987624 210.68351739 188.06630131 207.21484375 188.79296875 C206.15394531 188.86128906 205.09304688 188.92960938 204 189 C201.98828125 187.12109375 201.98828125 187.12109375 200.3125 184.4375 C195.90882782 178.30504245 190.87505576 175.80691932 184 173 C183.11054688 172.63132812 182.22109375 172.26265625 181.3046875 171.8828125 C171.14626378 167.99161968 160.10283053 169.99208116 150 173 C147.99300751 173.98589105 145.98969233 174.97964496 144 176 C140.73772085 175.58812909 139.08819074 174.429212 136.75 172.1875 C127.63014412 164.02866119 117.79044402 163.29492155 106.00390625 163.81201172 C100.34172439 164.34318619 96.26741029 167.09818883 91.75 170.3125 C89 172 89 172 86.83203125 171.88671875 C82.85874661 170.64266963 79.51728844 168.59896736 75.9375 166.5 C36.34762671 143.96179292 -8.92259371 132.14711943 -53 122 C-55.39973228 121.44603051 -57.79921739 120.89108435 -60.19799805 120.33300781 C-61.63106147 119.99993344 -63.06476458 119.66959212 -64.49926758 119.34277344 C-68.41758254 118.43478072 -72.20494099 117.33149675 -76 116 C-74.27887896 101.91976513 -69.13889206 88.69683157 -63 76 C-62.5052417 74.97156982 -62.5052417 74.97156982 -62.00048828 73.92236328 C-48.11680607 45.47565479 -26.06454151 20.2039389 -1 1 C-0.67 0.67 -0.34 0.34 0 0 Z " fill="#FDFDFE" transform="translate(145,164)"/>
<path d="M0 0 C0.67740234 0.14953125 1.35480469 0.2990625 2.05273438 0.453125 C16.87675645 3.74396649 30.94846201 9.81802442 44.86035156 15.77636719 C97.62345193 38.2865723 158.91631345 41.95529398 213 21 C214.73279395 20.34171313 216.46588433 19.68420619 218.19921875 19.02734375 C220.02872964 18.33094928 221.85815555 17.63433156 223.6875 16.9375 C224.61111328 16.58623047 225.53472656 16.23496094 226.48632812 15.87304688 C227.38158203 15.53208984 228.27683594 15.19113281 229.19921875 14.83984375 C230.40324341 14.38146118 230.40324341 14.38146118 231.6315918 13.91381836 C233.32318437 13.26114018 235.00337008 12.57857907 236.67504883 11.87646484 C239.42110016 10.8412528 240.3282912 10.84678194 243 12 C255.39708891 20.58416847 265.74457606 32.22884003 275 44 C275.88933228 45.08196655 275.88933228 45.08196655 276.79663086 46.18579102 C281.63980471 52.11481552 285.97370808 58.21755764 290.0625 64.6875 C290.66811768 65.64213135 291.27373535 66.5967627 291.89770508 67.58032227 C296.62131149 75.14559738 300.56584386 82.77212443 304 91 C304.52078125 92.12664062 305.0415625 93.25328125 305.578125 94.4140625 C307.1069321 98.2696804 307.89697372 101.8663319 308.5625 105.9375 C309.67138479 112.3246054 309.67138479 112.3246054 311.1875 118.625 C311.97812788 121.90914657 312.0611234 124.64291498 312 128 C304.65718542 129.91857399 297.30135444 131.57997639 289.85449219 133.04077148 C276.2890754 135.70993538 263.13952752 139.08368739 249.92724609 143.12646484 C246.00745952 144.29618931 242.06156767 145.35754016 238.11230469 146.42260742 C213.67386607 153.05260009 189.87984718 161.37976318 166.40820312 170.84814453 C165.73868118 171.11788086 165.06915924 171.38761719 164.37934875 171.66552734 C162.57134457 172.39597287 160.76545104 173.13163662 158.9597168 173.86767578 C154.11064503 175.72282672 154.11064503 175.72282672 152 176 C149.58984375 174.2265625 149.58984375 174.2265625 146.9375 171.625 C145.96062939 170.68900402 144.98140043 169.75546407 144 168.82421875 C143.50242187 168.34903809 143.00484375 167.87385742 142.4921875 167.38427734 C140.23177941 165.28733463 137.84138988 163.36675821 135.4375 161.4375 C130.99006552 157.84801032 126.74593009 154.09171544 122.5234375 150.2421875 C119.94917642 147.95484096 117.30710511 145.78451729 114.625 143.625 C110.6117345 140.38047268 106.77586874 137.01250676 103 133.5 C98.44351624 129.26553697 93.74438084 125.27138383 88.90234375 121.3671875 C85.61993931 118.6900178 82.39899783 115.9489536 79.1875 113.1875 C78.60073486 112.6831543 78.01396973 112.17880859 77.40942383 111.65917969 C75.00112227 109.58714145 72.59484795 107.51275573 70.18847656 105.43847656 C63.47359625 99.65329304 56.72577754 93.93033706 49.84375 88.34375 C46.52312733 85.60697307 43.25975434 82.80872192 40 80 C34.07664848 74.90262339 28.09127706 69.89657907 22 65 C21.21206055 64.36046387 21.21206055 64.36046387 20.40820312 63.70800781 C13.83225175 58.37895503 7.15509278 53.28136575 0.125 48.5625 C-0.46893555 48.16168213 -1.06287109 47.76086426 -1.67480469 47.34790039 C-15.91786589 37.96150905 -30.7968683 35.88010062 -47.625 38.58203125 C-60.98083561 42.23819125 -73.19072333 50.59450795 -84 59 C-84.66306152 59.51344971 -85.32612305 60.02689941 -86.00927734 60.5559082 C-89.81050329 63.5035212 -93.59645694 66.46846968 -97.359375 69.46484375 C-114.91643452 83.39172128 -130.6519412 94.47801757 -154 93 C-160.87129249 91.8472799 -166.34834722 88.99404512 -172 85 C-170.48512453 80.16509804 -167.73326972 77.02859386 -164.4375 73.3125 C-163.63058716 72.38667114 -163.63058716 72.38667114 -162.80737305 71.44213867 C-158.96944553 67.0522703 -155.05789576 62.72993297 -151.1328125 58.41796875 C-148.89676787 55.88296577 -146.79253744 53.26950044 -144.6875 50.625 C-137.38099226 41.60682786 -128.98502749 33.34400077 -120 26 C-119.07058594 25.23171875 -118.14117187 24.4634375 -117.18359375 23.671875 C-99.29042801 9.20577677 -79.58605564 0.93114262 -57 -3 C-55.92878906 -3.19335938 -54.85757813 -3.38671875 -53.75390625 -3.5859375 C-35.63380932 -5.58461625 -17.67962641 -4.15641931 0 0 Z " fill="#FDFDFE" transform="translate(484,158)"/>
<path d="M0 0 C1.05634644 0.00126892 2.11269287 0.00253784 3.2010498 0.00384521 C29.7466358 0.0642919 55.68688657 1.5048852 82 5.0625 C82.91108521 5.18538391 83.82217041 5.30826782 84.76086426 5.43487549 C133.20749708 12.06079737 180.85380218 25.29753406 225.125 46.1875 C225.76453613 46.4880127 226.40407227 46.78852539 227.06298828 47.09814453 C245.61419221 55.8970408 263.51858969 66.10628388 280.125 78.1875 C280.92550781 78.74179688 281.72601562 79.29609375 282.55078125 79.8671875 C283.07027344 80.30289063 283.58976563 80.73859375 284.125 81.1875 C284.125 81.8475 284.125 82.5075 284.125 83.1875 C253.94714021 95.16531033 225.12016942 102.43152787 192.5 102.375 C191.36899872 102.37309662 191.36899872 102.37309662 190.21514893 102.37115479 C161.58624154 102.27932979 132.20585259 97.43262655 106.6015625 83.82421875 C99.93471843 80.41392671 92.85555223 78.18210675 85.75878906 75.84814453 C83.39000537 75.06744544 81.02697111 74.27093619 78.6640625 73.47265625 C69.58191879 70.43679917 60.5725613 67.8621352 51.125 66.1875 C49.98635498 65.98527832 48.84770996 65.78305664 47.67456055 65.57470703 C39.15360715 64.21006732 30.80752954 63.87273769 22.1875 63.9375 C21.53002777 63.94093414 20.87255554 63.94436829 20.19515991 63.94790649 C-8.61201933 64.12409586 -41.72296821 70.89802342 -63.3984375 91.46484375 C-66.96442636 94.60969278 -70.35170254 95.08127399 -75 95.25 C-84.62830738 95.97267204 -93.65326842 98.05931228 -102.98925781 100.44921875 C-107.20567539 101.52793675 -111.42904116 102.57848639 -115.65185547 103.63183594 C-117.75834041 104.15837739 -119.8641668 104.68756236 -121.96923828 105.21972656 C-123.40759033 105.58275879 -123.40759033 105.58275879 -124.875 105.953125 C-125.720625 106.16743164 -126.56625 106.38173828 -127.4375 106.60253906 C-148.26786921 111.60149385 -169.60020139 107.6930501 -189.875 102.1875 C-191.17805456 101.84067641 -192.4812822 101.49450256 -193.78466797 101.14892578 C-210.44673899 96.71359479 -226.8890255 91.73256186 -243.19140625 86.10742188 C-248.28694087 84.36069931 -253.40686786 82.68661507 -258.52294922 81.0012207 C-263.65426937 79.29786532 -263.65426937 79.29786532 -265.875 78.1875 C-264.50335118 74.07255353 -261.74030208 72.94102282 -258.1875 70.8125 C-257.4769043 70.38042236 -256.76630859 69.94834473 -256.03417969 69.50317383 C-254.47456312 68.55788589 -252.91242392 67.61675088 -251.34814453 66.67919922 C-248.85218398 65.17373831 -246.37698118 63.63786905 -243.90234375 62.09765625 C-214.12559295 43.7795347 -181.22132502 30.69498499 -147.70507812 21.00585938 C-145.21006411 20.28438879 -142.72173454 19.54417862 -140.234375 18.796875 C-112.9177855 10.73711028 -84.63003571 6.166663 -56.375 3 C-55.62226807 2.91514343 -54.86953613 2.83028687 -54.09399414 2.74285889 C-36.04543938 0.72830861 -18.15389347 -0.02250748 0 0 Z " fill="#2ABBFE" transform="translate(426.875,75.8125)"/>
<path d="M0 0 C5.34870566 2.35510523 9.54872544 6.41023475 12.55859375 11.37890625 C13.92309654 15.32725474 14.8390416 19.26717966 15.55859375 23.37890625 C15.89890625 22.88261719 16.23921875 22.38632812 16.58984375 21.875 C22.60531625 13.44373935 28.91076058 7.5359874 38.99609375 4.69140625 C48.17633763 3.57186431 57.46382832 4.93610207 65.28125 10.21875 C70.59273071 15.25691267 73.08914104 22.18063131 73.55859375 29.37890625 C77.79859512 29.73161433 79.82226674 28.91190961 83.24609375 26.44140625 C88.97670035 22.36737837 92.51984973 21.82838996 99.55859375 22.37890625 C109.49885966 24.35533339 115.9774196 28.69802728 121.68359375 37.01953125 C123.04121099 40.68024917 122.84654379 44.2580022 122.80859375 48.12890625 C122.81632813 48.90234375 122.8240625 49.67578125 122.83203125 50.47265625 C122.81424327 55.77347369 121.92903816 60.26693107 120.55859375 65.37890625 C120.55859375 66.69890625 120.55859375 68.01890625 120.55859375 69.37890625 C122.44578125 69.16234375 122.44578125 69.16234375 124.37109375 68.94140625 C125.07878906 68.86019531 125.78648437 68.77898437 126.515625 68.6953125 C128.75255768 68.4071989 128.75255768 68.4071989 131.55859375 67.37890625 C142.49062829 66.52176729 150.05399922 67.68386546 158.74609375 74.37890625 C164.82390027 80.0791336 168.84756584 87.60778864 169.12109375 96.00390625 C168.45441224 105.68467732 165.89826569 112.10911271 159.109375 119.17578125 C152.78254888 124.64029876 145.43702143 127.70631247 137.09765625 127.59765625 C127.11745884 126.73782386 119.56804062 122.30186881 113.16796875 114.7265625 C109.29014501 109.06983418 107.29192546 102.16222455 106.55859375 95.37890625 C102.05890403 95.80075216 99.08860295 97.77127363 95.42578125 100.22265625 C90.77956156 103.09981322 85.83105238 103.11890044 80.55859375 102.37890625 C72.33350653 99.48928966 65.55721931 95.37615736 61.55859375 87.37890625 C61.32909056 85.17454225 61.14783442 82.96498452 60.99609375 80.75390625 C60.91230469 79.56539063 60.82851563 78.376875 60.7421875 77.15234375 C60.68160156 76.23710937 60.62101562 75.321875 60.55859375 74.37890625 C57.96016237 73.39185909 56.90051764 73.23363289 54.296875 74.33984375 C53.09611328 75.03980469 53.09611328 75.03980469 51.87109375 75.75390625 C45.63639674 78.98940499 41.18189974 80.40241462 34.28125 78.453125 C24.42793765 74.87312513 18.64380615 70.56608756 13.55859375 61.37890625 C10.75095449 53.97694821 11.37565867 46.18413627 11.55859375 38.37890625 C8.59178565 39.49958924 6.26465982 40.57903148 3.62109375 42.37890625 C-1.65336142 45.8234484 -6.15852051 46.92053433 -12.44140625 46.37890625 C-20.08321762 44.68755967 -25.85487906 39.96666977 -30.37890625 33.69140625 C-33.30118194 27.33115916 -33.49446975 19.84959077 -31.37890625 13.19140625 C-25.91196351 0.45239816 -12.75646962 -3.24524587 0 0 Z " fill="#FCFCFE" transform="translate(266.44140625,340.62109375)"/>
<path d="M0 0 C0 0.33 0 0.66 0 1 C-3.45445356 1.76765635 -6.73094763 2.16082243 -10.265625 2.28125 C-11.23757813 2.31863281 -12.20953125 2.35601563 -13.2109375 2.39453125 C-15.25258544 2.46538536 -17.29425253 2.53568964 -19.3359375 2.60546875 C-20.30273438 2.64285156 -21.26953125 2.68023438 -22.265625 2.71875 C-23.59255371 2.76418945 -23.59255371 2.76418945 -24.94628906 2.81054688 C-26.9916459 2.7785916 -26.9916459 2.7785916 -28 4 C-29.47354348 4.09304018 -30.95150591 4.11746265 -32.42797852 4.11352539 C-33.36887833 4.11344986 -34.30977814 4.11337433 -35.27919006 4.11329651 C-36.30209641 4.10813522 -37.32500275 4.10297394 -38.37890625 4.09765625 C-39.42070541 4.0962413 -40.46250458 4.09482635 -41.53587341 4.09336853 C-44.87811094 4.0877508 -48.22028257 4.0751953 -51.5625 4.0625 C-53.82226466 4.05748728 -56.08203037 4.05292398 -58.34179688 4.04882812 C-63.89455391 4.03777561 -69.44727225 4.02102024 -75 4 C-75 3.34 -75 2.68 -75 2 C-73.80737549 1.97494385 -72.61475098 1.9498877 -71.38598633 1.92407227 C-66.85125583 1.82805541 -62.31661181 1.72835529 -57.78198242 1.62768555 C-55.83994606 1.58505431 -53.89788909 1.54334953 -51.95581055 1.50268555 C-40.59622091 1.26412533 -29.25242889 0.92823926 -17.90534973 0.33253479 C-11.93315288 0.02162904 -5.98099446 -0.12606312 0 0 Z " fill="#021686" transform="translate(484,541)"/>
<path d="M0 0 C4.72098417 0.61944123 9.30514627 1.46410685 13.9375 2.5625 C15.65259766 2.96662109 15.65259766 2.96662109 17.40234375 3.37890625 C18.68818359 3.68634766 18.68818359 3.68634766 20 4 C20 4.33 20 4.66 20 5 C16.92382812 4.609375 16.92382812 4.609375 13.84765625 4.21875 C9.90936711 3.91622024 5.94989184 4 2 4 C1.67 10.6 1.34 17.2 1 24 C1.66 24 2.32 24 3 24 C3.33 30.93 3.66 37.86 4 45 C3.67 45 3.34 45 3 45 C-0.04803296 29.94126574 -0.35006153 15.3326951 0 0 Z " fill="#359AED" transform="translate(66,296)"/>
<path d="M0 0 C32.10150945 -0.61916858 32.10150945 -0.61916858 48 3 C48 3.33 48 3.66 48 4 C41.39560569 4.19747358 35.0327238 4.11995529 28.5 3.0625 C19.06166786 1.55365098 9.54015248 1.3359401 0 1 C0 0.67 0 0.34 0 0 Z " fill="#04228F" transform="translate(434,139)"/>
<path d="M0 0 C-3.83554166 3.48685606 -7.02922751 4.69190198 -12 6 C-15.30646345 7.45484392 -17.81112643 8.83876646 -20.5625 11.1875 C-23.33883091 13.25195119 -24.62574368 13.38562929 -28 13 C-23.01786068 7.63706022 -7.05034612 -3.52517306 0 0 Z " fill="#021C8A" transform="translate(400,148)"/>
<path d="M0 0 C2.89932357 2.39509338 3.50168276 4.31245243 4 8 C4.66 8 5.32 8 6 8 C6 9.98 6 11.96 6 14 C6.66 14 7.32 14 8 14 C9.66666667 17.33333333 11.33333333 20.66666667 13 24 C13.60714844 25.05960937 13.60714844 25.05960937 14.2265625 26.140625 C15 28 15 28 14 31 C0 6.528 0 6.528 0 0 Z " fill="#3AA6F6" transform="translate(77,364)"/>
<path d="M0 0 C4.80059677 -0.10910447 8.32040803 0.40281174 12.8125 2 C16.01815185 3.11120172 16.01815185 3.11120172 19.5625 3.4375 C23.07637792 4.0124982 25.10686676 4.9835738 28 7 C23.81759755 9.09120122 17.80323768 6.25190385 13.4375 5.1875 C12.26251953 4.91357422 11.08753906 4.63964844 9.87695312 4.35742188 C8.76126953 4.08865234 7.64558594 3.81988281 6.49609375 3.54296875 C5.46669678 3.29571045 4.4372998 3.04845215 3.37670898 2.79370117 C1 2 1 2 0 0 Z " fill="#041F8D" transform="translate(549,87)"/>
<path d="M0 0 C0.33 0.99 0.66 1.98 1 3 C-0.42341246 4.18617705 -1.84725878 5.37183785 -3.2734375 6.5546875 C-4.41227579 7.50801367 -5.54276495 8.47141557 -6.6640625 9.4453125 C-10.7875 13 -10.7875 13 -13 13 C-13.226875 13.598125 -13.45375 14.19625 -13.6875 14.8125 C-15.3611297 17.60188284 -17.08817726 18.6168842 -20 20 C-20.66 19.67 -21.32 19.34 -22 19 C-21.0821875 18.21496094 -20.164375 17.42992187 -19.21875 16.62109375 C-12.78368728 11.11333917 -6.35264164 5.60295101 0 0 Z " fill="#011283" transform="translate(739,438)"/>
<path d="M0 0 C1 3 1 3 -0.3125 6.0625 C-2 9 -2 9 -4 11 C-4.90717566 12.5229555 -5.77927327 14.06708235 -6.625 15.625 C-7.07101562 16.44226563 -7.51703125 17.25953125 -7.9765625 18.1015625 C-8.31429687 18.72804688 -8.65203125 19.35453125 -9 20 C-9.99 19.67 -10.98 19.34 -12 19 C-10.70369101 16.30326081 -9.2862657 13.81034386 -7.6171875 11.328125 C-7.17246094 10.66425781 -6.72773437 10.00039063 -6.26953125 9.31640625 C-5.80933594 8.63449219 -5.34914063 7.95257813 -4.875 7.25 C-4.40707031 6.55261719 -3.93914063 5.85523438 -3.45703125 5.13671875 C-2.30677705 3.42307474 -1.15366914 1.71134684 0 0 Z " fill="#06198B" transform="translate(776,392)"/>
<path d="M0 0 C3.3 0.33 6.6 0.66 10 1 C10 1.66 10 2.32 10 3 C14.32448133 3.73832608 18.65535464 4.39174965 23 5 C23 5.66 23 6.32 23 7 C23.99 7.33 24.98 7.66 26 8 C24 9 24 9 21.56982422 8.37915039 C20.5748291 8.03875732 19.57983398 7.69836426 18.5546875 7.34765625 C17.47832031 6.98349609 16.40195313 6.61933594 15.29296875 6.24414062 C14.16503906 5.85419922 13.03710938 5.46425781 11.875 5.0625 C10.73933594 4.67642578 9.60367188 4.29035156 8.43359375 3.89257812 C5.62005203 2.93502821 2.80907052 1.97057271 0 1 C0 0.67 0 0.34 0 0 Z " fill="#3B9EF4" transform="translate(181,160)"/>
<path d="M0 0 C0.66 0.33 1.32 0.66 2 1 C-3.0589501 4.01435845 -7.14848324 4.51764569 -12.875 4.6875 C-14.050625 4.73874023 -14.050625 4.73874023 -15.25 4.79101562 C-17.16618748 4.87280412 -19.08306715 4.9380946 -21 5 C-21.103125 5.639375 -21.20625 6.27875 -21.3125 6.9375 C-21.539375 7.618125 -21.76625 8.29875 -22 9 C-22.99 9.33 -23.98 9.66 -25 10 C-24.34 7.69 -23.68 5.38 -23 3 C-21.84242188 2.95101563 -20.68484375 2.90203125 -19.4921875 2.8515625 C-17.9531033 2.77648522 -16.4140419 2.70093957 -14.875 2.625 C-13.73417969 2.57859375 -13.73417969 2.57859375 -12.5703125 2.53125 C-8.01973045 2.29587507 -4.33176258 1.51414193 0 0 Z " fill="#3995EE" transform="translate(576,436)"/>
<path d="M0 0 C-2.61941645 2.61941645 -4.42972479 2.54724345 -8.0625 3.0625 C-11.84863663 3.31267471 -11.84863663 3.31267471 -15 5 C-16.51928038 5.07179964 -18.04167482 5.08392007 -19.5625 5.0625 C-20.38878906 5.05347656 -21.21507812 5.04445312 -22.06640625 5.03515625 C-22.70449219 5.02355469 -23.34257812 5.01195312 -24 5 C-20.23552802 2.83346795 -16.17711559 1.86056252 -12 0.8125 C-11.2884375 0.62236328 -10.576875 0.43222656 -9.84375 0.23632812 C-3.40383599 -1.39167253 -3.40383599 -1.39167253 0 0 Z " fill="#072B95" transform="translate(321,178)"/>
<path d="M0 0 C-3.01447835 2.57075841 -5.35979771 3.52207066 -9.25 4.1875 C-10.58804688 4.42533203 -10.58804688 4.42533203 -11.953125 4.66796875 C-12.96632812 4.83232422 -12.96632812 4.83232422 -14 5 C-14 5.66 -14 6.32 -14 7 C-17.4019487 9.09350689 -20.05272412 9.17942163 -24 9 C-20.70301848 5.70301848 -16.28559257 4.51780871 -12 2.8125 C-11.071875 2.43158203 -10.14375 2.05066406 -9.1875 1.65820312 C-8.300625 1.30306641 -7.41375 0.94792969 -6.5 0.58203125 C-5.27796875 0.09053589 -5.27796875 0.09053589 -4.03125 -0.41088867 C-2 -1 -2 -1 0 0 Z " fill="#3896EC" transform="translate(250,108)"/>
<path d="M0 0 C-2.05637612 2.78215593 -3.09792496 3.01688361 -6.625 3.625 C-7.73875 3.74875 -8.8525 3.8725 -10 4 C-10.33 4.33 -10.66 4.66 -11 5 C-12.42445647 5.42184715 -13.86545725 5.78869874 -15.3125 6.125 C-16.48232422 6.40730469 -16.48232422 6.40730469 -17.67578125 6.6953125 C-20.10736639 7.01407492 -21.6864786 6.7517621 -24 6 C-22.37191406 5.49339844 -22.37191406 5.49339844 -20.7109375 4.9765625 C-19.26561539 4.52607249 -17.82030343 4.07554993 -16.375 3.625 C-15.66214844 3.40328125 -14.94929688 3.1815625 -14.21484375 2.953125 C-13.16103516 2.62441406 -13.16103516 2.62441406 -12.0859375 2.2890625 C-11.39338867 2.07411133 -10.70083984 1.85916016 -9.98730469 1.63769531 C-8.17839566 1.05724441 -6.38849531 0.41837647 -4.6015625 -0.2265625 C-2 -1 -2 -1 0 0 Z " fill="#37A3F5" transform="translate(294,94)"/>
<path d="M0 0 C-0.33 0.66 -0.66 1.32 -1 2 C-10.61548382 4.91160445 -21.07345654 4.19853087 -31 4 C-31 3.67 -31 3.34 -31 3 C-30.31373535 2.94465088 -29.6274707 2.88930176 -28.92041016 2.83227539 C-25.82157565 2.57994697 -22.72330016 2.32130351 -19.625 2.0625 C-18.00464844 1.93198242 -18.00464844 1.93198242 -16.3515625 1.79882812 C-15.3203125 1.71181641 -14.2890625 1.62480469 -13.2265625 1.53515625 C-12.27346191 1.456604 -11.32036133 1.37805176 -10.33837891 1.29711914 C-0.11086028 -0.00241001 -0.11086028 -0.00241001 0 0 Z " fill="#201576" transform="translate(305,195)"/>
<path d="M0 0 C0.69222656 0.28875 1.38445312 0.5775 2.09765625 0.875 C10.71869974 4.14622599 17.90435056 4.44732702 27 4 C27 4.66 27 5.32 27 6 C7.99544419 6.738041 7.99544419 6.738041 0 2 C0 1.34 0 0.68 0 0 Z " fill="#3CA3F5" transform="translate(288,429)"/>
<path d="M0 0 C3.42926485 2.78363165 4.94893502 6.64536896 6.75 10.5625 C7.07871094 11.24763672 7.40742187 11.93277344 7.74609375 12.63867188 C8.56373181 14.39642121 9.28939651 16.19632114 10 18 C9.67 18.66 9.34 19.32 9 20 C8.15885829 18.56705502 7.32734313 17.12845595 6.5 15.6875 C6.0359375 14.88699219 5.571875 14.08648437 5.09375 13.26171875 C4 11 4 11 4 8 C3.01 8 2.02 8 1 8 C0.67 5.36 0.34 2.72 0 0 Z " fill="#92B8E7" transform="translate(778,231)"/>
<path d="M0 0 C0.33 0.99 0.66 1.98 1 3 C-0.14453125 4.82421875 -0.14453125 4.82421875 -1.8125 6.6875 C-2.35519531 7.31011719 -2.89789063 7.93273437 -3.45703125 8.57421875 C-5 10 -5 10 -7 10 C-7.33 11.32 -7.66 12.64 -8 14 C-8.66 14 -9.32 14 -10 14 C-8.38798165 8.2683792 -4.12110332 4.12110332 0 0 Z " fill="#1B127C" transform="translate(306,223)"/>
<path d="M0 0 C-3.43255965 1.20213133 -6.87171198 2.38414794 -10.3125 3.5625 C-11.28896484 3.90474609 -12.26542969 4.24699219 -13.27148438 4.59960938 C-14.20927734 4.91865234 -15.14707031 5.23769531 -16.11328125 5.56640625 C-16.97735596 5.86490479 -17.84143066 6.16340332 -18.73168945 6.47094727 C-21 7 -21 7 -24 6 C-21.69 5.34 -19.38 4.68 -17 4 C-17 3.34 -17 2.68 -17 2 C-14.73139163 1.4695592 -12.46001511 0.95094566 -10.1875 0.4375 C-8.29064453 0.00244141 -8.29064453 0.00244141 -6.35546875 -0.44140625 C-3 -1 -3 -1 0 0 Z " fill="#3BA7F8" transform="translate(611,514)"/>
<path d="M0 0 C0.66 0.33 1.32 0.66 2 1 C0.7260411 3.03833424 -0.61061923 5.03852126 -2 7 C-2.66 7 -3.32 7 -4 7 C-4 7.99 -4 8.98 -4 10 C-8.455 11.485 -8.455 11.485 -13 13 C-13 12.34 -13 11.68 -13 11 C-11.42578125 9.921875 -11.42578125 9.921875 -9.3125 8.75 C-5.24965464 6.33249876 -2.81029678 3.7763363 0 0 Z " fill="#3CA7F6" transform="translate(504,466)"/>
<path d="M0 0 C0 0.99 0 1.98 0 3 C-1.2065625 2.9690625 -1.2065625 2.9690625 -2.4375 2.9375 C-4.93354885 2.70366379 -4.93354885 2.70366379 -6 4 C-8.86267567 4.07325168 -11.700719 4.09238205 -14.5625 4.0625 C-15.36880859 4.05798828 -16.17511719 4.05347656 -17.00585938 4.04882812 C-19.00393756 4.03700518 -21.00197783 4.01906914 -23 4 C-23.33 3.34 -23.66 2.68 -24 2 C-23.154375 2.02320313 -22.30875 2.04640625 -21.4375 2.0703125 C-14.03245965 2.18811996 -7.13398581 0 0 0 Z " fill="#3AA9F8" transform="translate(531,465)"/>
<path d="M0 0 C0.99 0.33 1.98 0.66 3 1 C4.12405619 3.92777426 4.19304113 6.88624851 4.25 10 C4.27578125 10.845625 4.3015625 11.69125 4.328125 12.5625 C3.93637521 15.47264128 2.91578046 16.8220601 1 19 C0.34 18.67 -0.32 18.34 -1 18 C-0.67386719 17.43152344 -0.34773437 16.86304688 -0.01171875 16.27734375 C2.18857015 11.3245699 1.32585151 5.13767459 0 0 Z " fill="#1E157A" transform="translate(633,354)"/>
<path d="M0 0 C2.97 0.33 5.94 0.66 9 1 C9.33 2.32 9.66 3.64 10 5 C8.5625 6.75 8.5625 6.75 7 8 C5.83035398 6.8572081 4.66435444 5.71068285 3.5 4.5625 C2.8503125 3.92441406 2.200625 3.28632813 1.53125 2.62890625 C0 1 0 1 0 0 Z " fill="#211787" transform="translate(549,352)"/>
<path d="M0 0 C3.63 0 7.26 0 11 0 C6.20477671 2.39761165 2.44601041 3.13190974 -2.86328125 3.09765625 C-4.19262695 3.09282227 -4.19262695 3.09282227 -5.54882812 3.08789062 C-6.46083984 3.07951172 -7.37285156 3.07113281 -8.3125 3.0625 C-9.24384766 3.05798828 -10.17519531 3.05347656 -11.13476562 3.04882812 C-13.42324373 3.03709234 -15.71158808 3.02067363 -18 3 C-18 2.67 -18 2.34 -18 2 C-12.06 2 -6.12 2 0 2 C0 1.34 0 0.68 0 0 Z " fill="#3BA5F6" transform="translate(290,181)"/>
<path d="M0 0 C1.65 0 3.3 0 5 0 C1.66894651 2.66648371 -1.87197848 4.6669681 -5.625 6.6875 C-6.77226563 7.31011719 -7.91953125 7.93273437 -9.1015625 8.57421875 C-12 10 -12 10 -14 10 C-14 9.34 -14 8.68 -14 8 C-13.01 8 -12.02 8 -11 8 C-11 7.34 -11 6.68 -11 6 C-9.5437455 5.32880451 -8.08492133 4.66318193 -6.625 4 C-5.81289063 3.62875 -5.00078125 3.2575 -4.1640625 2.875 C-2 2 -2 2 0 2 C0 1.34 0 0.68 0 0 Z " fill="#3AA5F6" transform="translate(669,485)"/>
<path d="M0 0 C0.66 0 1.32 0 2 0 C3.7143618 1.95927063 5.38405168 3.95880212 7 6 C5.69593116 8.01920337 4.36176581 10.01924973 3 12 C2.67 12 2.34 12 2 12 C1.34 8.04 0.68 4.08 0 0 Z " fill="#1A1076" transform="translate(279,353)"/>
<path d="M0 0 C-0.33 0.99 -0.66 1.98 -1 3 C-4.24854361 4.3069722 -7.66256629 4.16623198 -11.125 4.1875 C-12.17945313 4.20167969 -13.23390625 4.21585937 -14.3203125 4.23046875 C-17 4 -17 4 -19 2 C-18.02417969 1.93941406 -17.04835938 1.87882812 -16.04296875 1.81640625 C-14.77066406 1.73261719 -13.49835937 1.64882813 -12.1875 1.5625 C-10.92292969 1.48128906 -9.65835938 1.40007812 -8.35546875 1.31640625 C-5.436201 1.04113188 -2.88497422 0 0 0 Z " fill="#28207F" transform="translate(572,421)"/>
<path d="M0 0 C1.2065625 0.0309375 1.2065625 0.0309375 2.4375 0.0625 C2.7675 0.7225 3.0975 1.3825 3.4375 2.0625 C2.7775 2.0625 2.1175 2.0625 1.4375 2.0625 C1.4375 3.0525 1.4375 4.0425 1.4375 5.0625 C0.7775 5.0625 0.1175 5.0625 -0.5625 5.0625 C-0.8925 6.3825 -1.2225 7.7025 -1.5625 9.0625 C-3.71059171 5.84036243 -3.85636153 4.78474599 -3.5625 1.0625 C-2.5625 0.0625 -2.5625 0.0625 0 0 Z " fill="#1B1176" transform="translate(463.5625,414.9375)"/>
<path d="M0 0 C0.66 0.66 1.32 1.32 2 2 C1.01 2.66 0.02 3.32 -1 4 C-1.474375 4.804375 -1.94875 5.60875 -2.4375 6.4375 C-4.05573713 9.09140889 -5.30074907 10.48167135 -8 12 C-8.99 11.67 -9.98 11.34 -11 11 C-7.37 7.37 -3.74 3.74 0 0 Z " fill="#1C1377" transform="translate(333,194)"/>
<path d="M0 0 C-1.32 0.33 -2.64 0.66 -4 1 C-4 1.66 -4 2.32 -4 3 C-10.93 4.485 -10.93 4.485 -18 6 C-18.33 5.34 -18.66 4.68 -19 4 C-16.21079611 3.1369594 -13.41913928 2.28427693 -10.625 1.4375 C-9.8309375 1.19064453 -9.036875 0.94378906 -8.21875 0.68945312 C-7.45820312 0.46064453 -6.69765625 0.23183594 -5.9140625 -0.00390625 C-5.2123291 -0.21861572 -4.5105957 -0.4333252 -3.78759766 -0.65454102 C-2 -1 -2 -1 0 0 Z " fill="#3295EA" transform="translate(738,318)"/>
<path d="M0 0 C3.1108633 4.66629496 3.12311555 8.79648451 3.0625 14.3125 C3.05347656 15.38113281 3.04445313 16.44976562 3.03515625 17.55078125 C3.02355469 18.35902344 3.01195312 19.16726563 3 20 C2.67 20 2.34 20 2 20 C1.47130166 17.04287371 0.9517326 14.0846444 0.4375 11.125 C0.28603516 10.28324219 0.13457031 9.44148438 -0.02148438 8.57421875 C-0.16005859 7.76855469 -0.29863281 6.96289062 -0.44140625 6.1328125 C-0.57232666 5.38918457 -0.70324707 4.64555664 -0.83813477 3.87939453 C-1 2 -1 2 0 0 Z " fill="#39318A" transform="translate(400,375)"/>
<path d="M0 0 C2.05078125 0.03255208 4.1015625 0.06510417 6.15234375 0.09765625 C2.63127546 2.04304648 -0.99520995 3.15472444 -4.84765625 4.28515625 C-6.06453125 4.64996094 -7.28140625 5.01476562 -8.53515625 5.390625 C-11.57647377 6.03977414 -13.0127727 6.21034804 -15.84765625 5.09765625 C-14.92082031 4.82050781 -13.99398438 4.54335937 -13.0390625 4.2578125 C-11.84152344 3.89558594 -10.64398438 3.53335938 -9.41015625 3.16015625 C-8.21519531 2.80050781 -7.02023437 2.44085938 -5.7890625 2.0703125 C-3.41374058 1.28484748 -2.31313042 0.12225848 0 0 Z " fill="#3DA6F8" transform="translate(325.84765625,172.90234375)"/>
<path d="M0 0 C1.65322266 0.01740234 1.65322266 0.01740234 3.33984375 0.03515625 C4.44457031 0.04417969 5.54929687 0.05320313 6.6875 0.0625 C7.54214844 0.07410156 8.39679687 0.08570313 9.27734375 0.09765625 C2.95686824 4.31130659 -6.23538222 4.44590155 -13.72265625 4.09765625 C-13.72265625 3.76765625 -13.72265625 3.43765625 -13.72265625 3.09765625 C-13.01238281 2.96488281 -12.30210937 2.83210937 -11.5703125 2.6953125 C-10.65121094 2.51871094 -9.73210938 2.34210938 -8.78515625 2.16015625 C-7.41037109 1.89912109 -7.41037109 1.89912109 -6.0078125 1.6328125 C-3.13172342 0.95926685 -3.08880039 0.11078911 0 0 Z " fill="#3B9FF2" transform="translate(654.72265625,172.90234375)"/>
<path d="M0 0 C0.33 0.66 0.66 1.32 1 2 C2.88013106 3.12224855 2.88013106 3.12224855 5.0625 4.125 C5.79597656 4.47820312 6.52945313 4.83140625 7.28515625 5.1953125 C8.13400391 5.59363281 8.13400391 5.59363281 9 6 C9 6.66 9 7.32 9 8 C7.37433394 7.52309796 5.74948689 7.04340334 4.125 6.5625 C3.22007812 6.29566406 2.31515625 6.02882812 1.3828125 5.75390625 C-1 5 -1 5 -3 4 C-2.67 3.01 -2.34 2.02 -2 1 C-1.34 0.67 -0.68 0.34 0 0 Z " fill="#3699EE" transform="translate(164,150)"/>
<path d="M0 0 C1.98 0.66 3.96 1.32 6 2 C3 3 3 3 0 2 C-0.33 2.99 -0.66 3.98 -1 5 C-2.48828125 6.203125 -2.48828125 6.203125 -4.3125 7.25 C-4.90675781 7.60578125 -5.50101562 7.9615625 -6.11328125 8.328125 C-8.4491564 9.15994803 -9.69274206 8.7945524 -12 8 C-11.30132812 7.59007812 -10.60265625 7.18015625 -9.8828125 6.7578125 C-8.97273438 6.21898437 -8.06265625 5.68015625 -7.125 5.125 C-6.22007812 4.59132813 -5.31515625 4.05765625 -4.3828125 3.5078125 C-1.93396718 2.08024648 -1.93396718 2.08024648 0 0 Z " fill="#3CA7F9" transform="translate(434,470)"/>
<path d="M0 0 C0.66 1.32 1.32 2.64 2 4 C-1.42388092 7.82669043 -4.00724943 9.72278474 -9 11 C-8.60167969 10.54109375 -8.20335937 10.0821875 -7.79296875 9.609375 C-5.08857938 6.47728415 -2.42008229 3.36122541 0 0 Z " fill="#37A6F6" transform="translate(598,419)"/>
<path d="M0 0 C3.63 0.33 7.26 0.66 11 1 C11 1.66 11 2.32 11 3 C13.31 3.33 15.62 3.66 18 4 C17.67 4.66 17.34 5.32 17 6 C5.47835991 2.92482916 5.47835991 2.92482916 0 1 C0 0.67 0 0.34 0 0 Z " fill="#241C7A" transform="translate(170,172)"/>
<path d="M0 0 C-2.10084209 1.00696568 -4.20579489 2.0053589 -6.3125 3 C-7.48425781 3.556875 -8.65601563 4.11375 -9.86328125 4.6875 C-13 6 -13 6 -16 6 C-16 5.34 -16 4.68 -16 4 C-14.68 4 -13.36 4 -12 4 C-12 3.34 -12 2.68 -12 2 C-10.56656 1.46809459 -9.12804633 0.94984742 -7.6875 0.4375 C-6.48673828 0.00244141 -6.48673828 0.00244141 -5.26171875 -0.44140625 C-3 -1 -3 -1 0 0 Z " fill="#38A7F6" transform="translate(648,499)"/>
<path d="M0 0 C2.78576391 2.53642084 4.71423062 5.40369256 6.75 8.5625 C7.38421875 9.53316406 8.0184375 10.50382813 8.671875 11.50390625 C9.11015625 12.32761719 9.5484375 13.15132812 10 14 C9.67 14.66 9.34 15.32 9 16 C5.6443794 13.7629196 5.80721959 13.57482962 5 10 C4.34 9.67 3.68 9.34 3 9 C2.1484375 6.93359375 2.1484375 6.93359375 1.375 4.4375 C1.11460937 3.61121094 0.85421875 2.78492188 0.5859375 1.93359375 C0.39257812 1.29550781 0.19921875 0.65742188 0 0 Z " fill="#BDDAF4" transform="translate(768,215)"/>
<path d="M0 0 C-0.33 0.99 -0.66 1.98 -1 3 C-3.3984375 4.16796875 -3.3984375 4.16796875 -6.375 5.1875 C-7.84066406 5.70376953 -7.84066406 5.70376953 -9.3359375 6.23046875 C-12 7 -12 7 -15 7 C-15 6.34 -15 5.68 -15 5 C-12.8765984 4.16260219 -10.7512272 3.33019717 -8.625 2.5 C-7.44164062 2.0359375 -6.25828125 1.571875 -5.0390625 1.09375 C-2 0 -2 0 0 0 Z " fill="#150C77" transform="translate(712,172)"/>
<path d="M0 0 C0 0.66 0 1.32 0 2 C-2.83556208 3.89037472 -4.83191263 4.65374862 -8.0625 5.5625 C-11.61733007 6.55972045 -11.61733007 6.55972045 -15 8 C-15.66 7.34 -16.32 6.68 -17 6 C-14.5433053 4.99580363 -12.08481647 3.99649499 -9.625 3 C-8.92632813 2.71382813 -8.22765625 2.42765625 -7.5078125 2.1328125 C-2.2265625 0 -2.2265625 0 0 0 Z " fill="#04208F" transform="translate(634,505)"/>
<path d="M0 0 C1.65 0 3.3 0 5 0 C5 1.32 5 2.64 5 4 C6.32 3.34 7.64 2.68 9 2 C8.34 3.98 7.68 5.96 7 8 C3.75700849 5.61042731 1.49097658 3.7952131 0 0 Z " fill="#1A1178" transform="translate(463,424)"/>
<path d="M0 0 C-4.65042684 2.32521342 -7.31077871 3.11460021 -12.625 3.0625 C-13.81351563 3.05347656 -15.00203125 3.04445313 -16.2265625 3.03515625 C-17.14179687 3.02355469 -18.05703125 3.01195312 -19 3 C-19 2.67 -19 2.34 -19 2 C-16.39740876 1.46989799 -13.793443 0.95062205 -11.1875 0.4375 C-10.44951172 0.28603516 -9.71152344 0.13457031 -8.95117188 -0.02148438 C-3.33984375 -1.11328125 -3.33984375 -1.11328125 0 0 Z " fill="#379DF1" transform="translate(627,400)"/>
<path d="M0 0 C-5.5522888 2.8352113 -9.80112515 3.37952295 -16 3 C-13.37109503 1.60926232 -10.87877953 0.56030796 -8 -0.1875 C-7.34 -0.36667969 -6.68 -0.54585938 -6 -0.73046875 C-3.73459024 -1.03576811 -2.164908 -0.68136613 0 0 Z " fill="#322A86" transform="translate(764,294)"/>
<path d="M0 0 C-4.29 2.64 -8.58 5.28 -13 8 C-13.33 7.34 -13.66 6.68 -14 6 C-13.34 6 -12.68 6 -12 6 C-11.67 5.01 -11.34 4.02 -11 3 C-9.35 2.67 -7.7 2.34 -6 2 C-6 1.34 -6 0.68 -6 0 C-3 -1 -3 -1 0 0 Z " fill="#031888" transform="translate(186,137)"/>
<path d="M0 0 C0.55171875 0.22558594 1.1034375 0.45117188 1.671875 0.68359375 C0.09840324 1.71956275 -1.48734046 2.73691107 -3.078125 3.74609375 C-3.95984375 4.31457031 -4.8415625 4.88304687 -5.75 5.46875 C-8.328125 6.68359375 -8.328125 6.68359375 -10.65625 6.3671875 C-11.48382813 6.02880859 -11.48382813 6.02880859 -12.328125 5.68359375 C-10.75465324 4.64762475 -9.16890954 3.63027643 -7.578125 2.62109375 C-6.69640625 2.05261719 -5.8146875 1.48414062 -4.90625 0.8984375 C-2.328125 -0.31640625 -2.328125 -0.31640625 0 0 Z " fill="#231B7C" transform="translate(182.328125,123.31640625)"/>
<path d="M0 0 C5.28 0.66 10.56 1.32 16 2 C16 2.33 16 2.66 16 3 C15.18015625 2.98839844 14.3603125 2.97679688 13.515625 2.96484375 C12.43796875 2.95582031 11.3603125 2.94679688 10.25 2.9375 C9.18265625 2.92589844 8.1153125 2.91429688 7.015625 2.90234375 C4.46631499 2.98489913 2.42066409 3.25382442 0 4 C0 2.68 0 1.36 0 0 Z " fill="#190D79" transform="translate(504,66)"/>
<path d="M0 0 C6.08233706 0.67581523 12.01314152 1.73638028 18 3 C18 3.33 18 3.66 18 4 C15.56077639 3.91299202 13.12521586 3.80613998 10.6875 3.6875 C9.99720703 3.66494141 9.30691406 3.64238281 8.59570312 3.61914062 C3.44325817 3.3453392 3.44325817 3.3453392 1.01953125 1.45703125 C0.68308594 0.97621094 0.34664063 0.49539063 0 0 Z " fill="#031A8A" transform="translate(306,529)"/>
<path d="M0 0 C0.66 1.65 1.32 3.3 2 5 C1.47921875 4.68289063 0.9584375 4.36578125 0.421875 4.0390625 C-2.67408709 2.71079489 -5.39404121 2.57635753 -8.75 2.375 C-10.50570313 2.26285156 -10.50570313 2.26285156 -12.296875 2.1484375 C-13.18890625 2.09945313 -14.0809375 2.05046875 -15 2 C-15 1.67 -15 1.34 -15 1 C-13.43784452 0.83013455 -11.8752548 0.66426036 -10.3125 0.5 C-9.44238281 0.4071875 -8.57226562 0.314375 -7.67578125 0.21875 C-5.10276661 0.00840136 -2.58015636 -0.03719144 0 0 Z " fill="#3A9DF1" transform="translate(363,456)"/>
<path d="M0 0 C0.99 0 1.98 0 3 0 C4.37871915 3.82977542 3.87113444 7.07989501 3 11 C2.01 11.66 1.02 12.32 0 13 C0 8.71 0 4.42 0 0 Z " fill="#1F1980" transform="translate(588,393)"/>
<path d="M0 0 C0.66 0.33 1.32 0.66 2 1 C-0.31537955 4.72114571 -2.28579473 7.61229661 -6 10 C-6.66 9.67 -7.32 9.34 -8 9 C-6.85459775 7.68712379 -5.70866567 6.37470979 -4.5625 5.0625 C-3.92441406 4.33160156 -3.28632813 3.60070312 -2.62890625 2.84765625 C-1.77458541 1.87860647 -0.91348825 0.91348825 0 0 Z " fill="#E8E9F9" transform="translate(244,343)"/>
<path d="M0 0 C-1.06541016 0.30744141 -1.06541016 0.30744141 -2.15234375 0.62109375 C-3.53099609 1.02521484 -3.53099609 1.02521484 -4.9375 1.4375 C-6.31228516 1.83775391 -6.31228516 1.83775391 -7.71484375 2.24609375 C-9.9402493 2.79026051 -9.9402493 2.79026051 -11 4 C-12.66617115 4.04063832 -14.33388095 4.042721 -16 4 C-16 3.34 -16 2.68 -16 2 C-14.08654673 1.46748234 -12.1690705 0.94940517 -10.25 0.4375 C-9.18265625 0.14746094 -8.1153125 -0.14257812 -7.015625 -0.44140625 C-4.15664073 -0.97098494 -2.68402617 -0.98370862 0 0 Z " fill="#3A9CF2" transform="translate(782,307)"/>
<path d="M0 0 C0.66 0 1.32 0 2 0 C1.46884894 4.51478398 -0.36620292 7.34666857 -3 11 C-3.66 10.67 -4.32 10.34 -5 10 C-4.67 8.35 -4.34 6.7 -4 5 C-2.68 4.67 -1.36 4.34 0 4 C0 2.68 0 1.36 0 0 Z " fill="#180E77" transform="translate(92,217)"/>
<path d="M0 0 C1.32 0.33 2.64 0.66 4 1 C2.75 3.9375 2.75 3.9375 1 7 C-1.1875 7.875 -1.1875 7.875 -3 8 C-2.45276317 4.62537285 -1.9451 2.91765 0 0 Z " fill="#120977" transform="translate(83,209)"/>
<path d="M0 0 C0.33 0.99 0.66 1.98 1 3 C-0.328125 5.04296875 -0.328125 5.04296875 -2.25 7.1875 C-3.18585937 8.26064453 -3.18585937 8.26064453 -4.140625 9.35546875 C-6 11 -6 11 -9 11 C-6.03 7.37 -3.06 3.74 0 0 Z " fill="#041989" transform="translate(763,411)"/>
<path d="M0 0 C4.43379675 2.21689838 6.46636932 4.77728219 9 9 C7.02 8.34 5.04 7.68 3 7 C2.67 5.35 2.34 3.7 2 2 C1.34 2 0.68 2 0 2 C0 1.34 0 0.68 0 0 Z " fill="#231B80" transform="translate(338,341)"/>
<path d="M0 0 C1.32 0 2.64 0 4 0 C4 0.66 4 1.32 4 2 C5.98 2 7.96 2 10 2 C10.66 3.65 11.32 5.3 12 7 C7.69235185 5.43358249 3.93828536 3.31663844 0 1 C0 0.67 0 0.34 0 0 Z " fill="#349EF2" transform="translate(183,480)"/>
<path d="M0 0 C0.99 0.33 1.98 0.66 3 1 C3 1.66 3 2.32 3 3 C4.65 3.33 6.3 3.66 8 4 C8 5.65 8 7.3 8 9 C7.01 9.495 7.01 9.495 6 10 C4.02 6.7 2.04 3.4 0 0 Z " fill="#21177A" transform="translate(84,436)"/>
<path d="M0 0 C2.6875 0.3125 2.6875 0.3125 5 1 C5 2.98 5 4.96 5 7 C4.34 6.01 3.68 5.02 3 4 C-0.06556598 3.26656572 -0.06556598 3.26656572 -3 3 C-1.8125 1.4375 -1.8125 1.4375 0 0 Z " fill="#201576" transform="translate(369,435)"/>
<path d="M0 0 C0.33 0 0.66 0 1 0 C2.33583899 4.84241633 3.25328119 8.93437617 3 14 C1.68 14.33 0.36 14.66 -1 15 C-0.34 13.35 0.32 11.7 1 10 C0.67 9.67 0.34 9.34 0 9 C-0.07179964 7.48071962 -0.08392007 5.95832518 -0.0625 4.4375 C-0.05347656 3.61121094 -0.04445313 2.78492188 -0.03515625 1.93359375 C-0.02355469 1.29550781 -0.01195312 0.65742188 0 0 Z " fill="#CDEAFA" transform="translate(793,272)"/>
<path d="M0 0 C-3.465 2.97 -3.465 2.97 -7 6 C-8 3 -8 3 -7 0 C-4.05610218 -1.17755913 -3.10046087 -1.03348696 0 0 Z " fill="#BFBEE8" transform="translate(340,188)"/>
<path d="M0 0 C0 0.66 0 1.32 0 2 C-8.57142857 2.28571429 -8.57142857 2.28571429 -12 0 C-7.91556885 -1.53166168 -4.20544343 -0.63081652 0 0 Z " fill="#011182" transform="translate(494,77)"/>
<path d="M0 0 C2.00240549 0.31856451 4.00211562 0.65421232 6 1 C7.11375 1.1546875 7.11375 1.1546875 8.25 1.3125 C10 2 10 2 11.25 4.0625 C11.4975 4.701875 11.745 5.34125 12 6 C7.76570244 4.68938409 3.92592596 3.05643741 0 1 C0 0.67 0 0.34 0 0 Z " fill="#36A2F4" transform="translate(199,489)"/>
<path d="M0 0 C0.66 0 1.32 0 2 0 C0.69386058 3.91841827 -0.83129848 6.32640809 -4 9 C-4.66 9 -5.32 9 -6 9 C-4.79618552 6.50638429 -3.54571278 4.31856917 -2 2 C-1.34 2 -0.68 2 0 2 C0 1.34 0 0.68 0 0 Z " fill="#001183" transform="translate(597,417)"/>
<path d="M0 0 C0.66 0 1.32 0 2 0 C2.125 5.75 2.125 5.75 1 8 C2.32 8.33 3.64 8.66 5 9 C3.35 9 1.7 9 0 9 C-0.84454356 5.62182575 -1.10844919 3.32534757 0 0 Z " fill="#2B2177" transform="translate(387,402)"/>
<path d="M0 0 C0 0.66 0 1.32 0 2 C2.64 2 5.28 2 8 2 C8 2.33 8 2.66 8 3 C7.15695312 2.98839844 6.31390625 2.97679687 5.4453125 2.96484375 C4.34960938 2.95582031 3.25390625 2.94679688 2.125 2.9375 C0.48917969 2.92009766 0.48917969 2.92009766 -1.1796875 2.90234375 C-3.95177546 2.80255697 -3.95177546 2.80255697 -6 4 C-6 3.01 -6 2.02 -6 1 C-4 0 -4 0 0 0 Z " fill="#0D2898" transform="translate(608,399)"/>
<path d="M0 0 C0.95465783 2.16967689 1.14401212 3.56328793 0.3984375 5.82421875 C-0.35870385 7.5684743 -1.17609198 9.28627131 -2 11 C-2.99 11 -3.98 11 -5 11 C-4.731875 10.484375 -4.46375 9.96875 -4.1875 9.4375 C-2.67650593 6.33598585 -1.34427274 3.17737194 0 0 Z " fill="#36A1F3" transform="translate(649,377)"/>
<path d="M0 0 C0.66 0 1.32 0 2 0 C1.67 1.65 1.34 3.3 1 5 C0.34 5 -0.32 5 -1 5 C-1 5.99 -1 6.98 -1 8 C-1.99 8.33 -2.98 8.66 -4 9 C-2.94124926 5.59687262 -1.99097846 2.98646769 0 0 Z " fill="#051888" transform="translate(781,383)"/>
<path d="M0 0 C0.66 0 1.32 0 2 0 C2 1.65 2 3.3 2 5 C2.66 5 3.32 5 4 5 C4 4.34 4 3.68 4 3 C5.32 3.33 6.64 3.66 8 4 C6 6 6 6 3.4375 6.1875 C1 6 1 6 0 5 C-0.04063832 3.33382885 -0.042721 1.66611905 0 0 Z " fill="#21157C" transform="translate(339,365)"/>
<path d="M0 0 C0.33 0.99 0.66 1.98 1 3 C-1.71182212 5.60334924 -2.89133813 5.99456691 -6.75 6.1875 C-7.8225 6.125625 -8.895 6.06375 -10 6 C-4 2 -4 2 0 2 C0 1.34 0 0.68 0 0 Z " fill="#072192" transform="translate(711,157)"/>
<path d="M0 0 C2.64 0.33 5.28 0.66 8 1 C4.32740617 3.44839588 1.45351799 5 -3 5 C-3 4.34 -3 3.68 -3 3 C-2.01 2.67 -1.02 2.34 0 2 C0 1.34 0 0.68 0 0 Z " fill="#36A6F6" transform="translate(696,160)"/>
<path d="M0 0 C-1 3 -1 3 -4 5 C-6.32387947 5.39387788 -8.65793749 5.73486085 -11 6 C-9.73083275 3.46166551 -8.58375191 3.10599099 -6.0625 1.875 C-5.35222656 1.52179688 -4.64195312 1.16859375 -3.91015625 0.8046875 C-2 0 -2 0 0 0 Z " fill="#329CEF" transform="translate(210,124)"/>
<path d="M0 0 C0 0.66 0 1.32 0 2 C-0.61875 2.0825 -1.2375 2.165 -1.875 2.25 C-4.18437567 2.81258459 -4.18437567 2.81258459 -5.25 5.0625 C-5.4975 5.701875 -5.745 6.34125 -6 7 C-7.32 6.34 -8.64 5.68 -10 5 C-8.71186658 4.16121545 -7.41936744 3.32913217 -6.125 2.5 C-5.40570312 2.0359375 -4.68640625 1.571875 -3.9453125 1.09375 C-2 0 -2 0 0 0 Z " fill="#061E8E" transform="translate(686,479)"/>
<path d="M0 0 C0.33 0.99 0.66 1.98 1 3 C-4.14285714 7.42857143 -4.14285714 7.42857143 -8 8 C-5.33333333 5.33333333 -2.66666667 2.66666667 0 0 Z " fill="#031D8B" transform="translate(725,450)"/>
<path d="M0 0 C0.99 0.33 1.98 0.66 3 1 C3 1.66 3 2.32 3 3 C4.32 3.33 5.64 3.66 7 4 C6.67 4.99 6.34 5.98 6 7 C3.69 5.35 1.38 3.7 -1 2 C-0.67 1.34 -0.34 0.68 0 0 Z " fill="#1C137A" transform="translate(418,408)"/>
<path d="M0 0 C0.66 0.99 1.32 1.98 2 3 C1.67 3.33 1.34 3.66 1 4 C0.76472227 6.34987262 0.58613583 8.70556039 0.4375 11.0625 C0.35371094 12.35285156 0.26992187 13.64320313 0.18359375 14.97265625 C0.12300781 15.97167969 0.06242188 16.97070312 0 18 C-0.33 18 -0.66 18 -1 18 C-1.02690844 15.37493198 -1.04679404 12.75013827 -1.0625 10.125 C-1.07087891 9.37863281 -1.07925781 8.63226563 -1.08789062 7.86328125 C-1.11328125 2.2265625 -1.11328125 2.2265625 0 0 Z " fill="#041C89" transform="translate(223,352)"/>
<path d="M0 0 C0.99 0 1.98 0 3 0 C2.34 2.64 1.68 5.28 1 8 C0.34 7.67 -0.32 7.34 -1 7 C-0.67 4.69 -0.34 2.38 0 0 Z " fill="#35A7F5" transform="translate(793,344)"/>
<path d="M0 0 C-3.07692746 2.6815279 -5.19734663 3.42087807 -9.25 3.6875 C-10.14203125 3.75324219 -11.0340625 3.81898437 -11.953125 3.88671875 C-12.62859375 3.92410156 -13.3040625 3.96148437 -14 4 C-11.37350692 2.24900461 -9.38191413 1.30690675 -6.4375 0.3125 C-5.65246094 0.04050781 -4.86742187 -0.23148437 -4.05859375 -0.51171875 C-2 -1 -2 -1 0 0 Z " fill="#3393E9" transform="translate(267,102)"/>
<path d="M0 0 C2.75 -0.25 2.75 -0.25 6 0 C8.375 2 8.375 2 10 4 C5.78087253 3.5205537 3.20336822 2.83374881 0 0 Z " fill="#36A3F5" transform="translate(256,513)"/>
<path d="M0 0 C0 0.66 0 1.32 0 2 C-1.32 2.33 -2.64 2.66 -4 3 C-4 3.66 -4 4.32 -4 5 C-4.99 5.33 -5.98 5.66 -7 6 C-7.66 5.34 -8.32 4.68 -9 4 C-2.25 0 -2.25 0 0 0 Z " fill="#052591" transform="translate(676,485)"/>
<path d="M0 0 C1.32 0.66 2.64 1.32 4 2 C2.35 3.65 0.7 5.3 -1 7 C-1 3 -1 3 0 0 Z " fill="#010E82" transform="translate(641,384)"/>
<path d="M0 0 C-0.1875 1.8125 -0.1875 1.8125 -1 4 C-3.4375 5.8125 -3.4375 5.8125 -6 7 C-6.66 6.67 -7.32 6.34 -8 6 C-7.0479279 4.99403703 -6.08812654 3.99538437 -5.125 3 C-4.59132813 2.443125 -4.05765625 1.88625 -3.5078125 1.3125 C-2 0 -2 0 0 0 Z " fill="#211A7C" transform="translate(319,211)"/>
<path d="M0 0 C-2.39763185 2.39763185 -3.33273498 2.34280586 -6.625 2.625 C-7.44226563 2.69976562 -8.25953125 2.77453125 -9.1015625 2.8515625 C-9.72804688 2.90054688 -10.35453125 2.94953125 -11 3 C-7.18178484 -0.02823961 -4.81391924 -1.49397494 0 0 Z " fill="#03198A" transform="translate(321,178)"/>
<path d="M0 0 C3.55234558 0.60897353 6.7331874 1.45733849 10 3 C10.33 3.66 10.66 4.32 11 5 C9.35153231 4.55123384 7.70626545 4.09069512 6.0625 3.625 C5.14597656 3.36976563 4.22945312 3.11453125 3.28515625 2.8515625 C1 2 1 2 0 0 Z " fill="#3BA0F4" transform="translate(545,163)"/>
<path d="M0 0 C2.3125 0.1875 2.3125 0.1875 4 1 C4 1.66 4 2.32 4 3 C-1.625 5 -1.625 5 -5 5 C-2.75 2.4375 -2.75 2.4375 0 0 Z " fill="#1B127B" transform="translate(132,156)"/>
<path d="M0 0 C5.859375 -0.390625 5.859375 -0.390625 8 0 C9.32 1.32 10.64 2.64 12 4 C6.06 2.515 6.06 2.515 0 1 C0 0.67 0 0.34 0 0 Z " fill="#072797" transform="translate(592,99)"/>
<path d="M0 0 C0.66 0.66 1.32 1.32 2 2 C3.2684375 2.4640625 3.2684375 2.4640625 4.5625 2.9375 C5.366875 3.288125 6.17125 3.63875 7 4 C7.33 4.99 7.66 5.98 8 7 C4.00499382 5.6302836 1.19990508 3.74277578 -2 1 C-1.34 0.67 -0.68 0.34 0 0 Z " fill="#2A2381" transform="translate(170,517)"/>
<path d="M0 0 C-2.64 1.65 -5.28 3.3 -8 5 C-8.33 4.34 -8.66 3.68 -9 3 C-8 1 -8 1 -5.625 -0.1875 C-3 -1 -3 -1 0 0 Z " fill="#39A7F6" transform="translate(684,480)"/>
<path d="M0 0 C0.66 0.33 1.32 0.66 2 1 C0.02 3.97 0.02 3.97 -2 7 C-2.99 6.67 -3.98 6.34 -5 6 C-3.35 4.02 -1.7 2.04 0 0 Z " fill="#32A0F2" transform="translate(504,466)"/>
<path d="M0 0 C0.66 0.33 1.32 0.66 2 1 C0.02 3.31 -1.96 5.62 -4 8 C-4.66 7.01 -5.32 6.02 -6 5 C-5.01 5 -4.02 5 -3 5 C-2.87625 4.360625 -2.7525 3.72125 -2.625 3.0625 C-2.41875 2.381875 -2.2125 1.70125 -2 1 C-1.34 0.67 -0.68 0.34 0 0 Z " fill="#3AA8F7" transform="translate(751,423)"/>
<path d="M0 0 C1.65 0 3.3 0 5 0 C3.02 2.97 3.02 2.97 1 6 C0.34 5.67 -0.32 5.34 -1 5 C-0.67 3.35 -0.34 1.7 0 0 Z " fill="#12097A" transform="translate(321,224)"/>
<path d="M0 0 C3.375 -0.1875 3.375 -0.1875 7 0 C7.66 0.99 8.32 1.98 9 3 C6.03 2.67 3.06 2.34 0 2 C0 1.34 0 0.68 0 0 Z " fill="#392F8D" transform="translate(254,195)"/>
<path d="M0 0 C0 0.66 0 1.32 0 2 C-3.4019487 4.09350689 -6.05272412 4.17942163 -10 4 C-7.02096266 1.02096266 -4.19714671 0 0 0 Z " fill="#38A4F5" transform="translate(236,113)"/>
<path d="M0 0 C1.32 0.33 2.64 0.66 4 1 C4 1.66 4 2.32 4 3 C5.32 3 6.64 3 8 3 C8 3.99 8 4.98 8 6 C4.08597051 4.73058503 2.20927127 3.48832306 0 0 Z " fill="#3C9DF2" transform="translate(151,458)"/>
<path d="M0 0 C3.465 1.98 3.465 1.98 7 4 C6.01 4.66 5.02 5.32 4 6 C3.01 5.67 2.02 5.34 1 5 C1 4.34 1 3.68 1 3 C0.34 2.67 -0.32 2.34 -1 2 C-0.67 1.34 -0.34 0.68 0 0 Z " fill="#201582" transform="translate(333,435)"/>
<path d="M0 0 C0.99 0.33 1.98 0.66 3 1 C-0.465 3.97 -0.465 3.97 -4 7 C-4 5.68 -4 4.36 -4 3 C-2.68 2.67 -1.36 2.34 0 2 C0 1.34 0 0.68 0 0 Z " fill="#38A3F3" transform="translate(741,433)"/>
<path d="M0 0 C0.99 0.66 1.98 1.32 3 2 C-2.41538462 5.07692308 -2.41538462 5.07692308 -5.375 4.6875 C-5.91125 4.460625 -6.4475 4.23375 -7 4 C-7 3.67 -7 3.34 -7 3 C-5.5459375 2.5359375 -5.5459375 2.5359375 -4.0625 2.0625 C-1.15934208 1.30476658 -1.15934208 1.30476658 0 0 Z " fill="#011486" transform="translate(579,432)"/>
<path d="M0 0 C0.66 0 1.32 0 2 0 C1.45276317 3.37462715 0.9451 5.08235 -1 8 C-1.66 6.35 -2.32 4.7 -3 3 C-2.01 3 -1.02 3 0 3 C0 2.01 0 1.02 0 0 Z " fill="#1A0F82" transform="translate(799,397)"/>
<path d="M0 0 C3.68754757 0.49831724 5.60490662 1.10067643 8 4 C6.68 4.33 5.36 4.66 4 5 C2.68 3.35 1.36 1.7 0 0 Z " fill="#D7DCF4" transform="translate(592,375)"/>
<path d="M0 0 C2.31 0 4.62 0 7 0 C7 0.99 7 1.98 7 3 C5.68 3.33 4.36 3.66 3 4 C2.01 2.68 1.02 1.36 0 0 Z " fill="#241C89" transform="translate(557,360)"/>
<path d="M0 0 C0.33 0.99 0.66 1.98 1 3 C-1.5654594 5.5654594 -3.47686668 5.54046087 -7 6 C-4.74259377 3.66475218 -2.7194239 1.81294927 0 0 Z " fill="#22197C" transform="translate(400,216)"/>
<path d="M0 0 C-2.35968744 2.09749995 -3.54616994 2.96905704 -6.75 3.1875 C-7.86375 3.0946875 -7.86375 3.0946875 -9 3 C-6.38220849 -0.01046024 -3.86655673 -1.93327837 0 0 Z " fill="#011284" transform="translate(381,158)"/>
<path d="M0 0 C0.99 0.66 1.98 1.32 3 2 C-0.465 4.97 -0.465 4.97 -4 8 C-4.66 7.67 -5.32 7.34 -6 7 C-4.02 4.69 -2.04 2.38 0 0 Z " fill="#DAD8F0" transform="translate(765,459)"/>
<path d="M0 0 C1.98 0.66 3.96 1.32 6 2 C6.33 3.65 6.66 5.3 7 7 C5.83040013 6.02433888 4.66438823 5.044375 3.5 4.0625 C2.8503125 3.51722656 2.200625 2.97195313 1.53125 2.41015625 C1.0259375 1.94480469 0.520625 1.47945313 0 1 C0 0.67 0 0.34 0 0 Z " fill="#3296EB" transform="translate(127,438)"/>
<path d="M0 0 C1.98 0.99 1.98 0.99 4 2 C3.67 4.64 3.34 7.28 3 10 C2.34 9.67 1.68 9.34 1 9 C1.020625 8.071875 1.04125 7.14375 1.0625 6.1875 C1.15769604 2.97713989 1.15769604 2.97713989 0 0 Z " fill="#160D77" transform="translate(536,429)"/>
<path d="M0 0 C2.475 0.99 2.475 0.99 5 2 C5 2.99 5 3.98 5 5 C2.525 4.01 2.525 4.01 0 3 C0 2.01 0 1.02 0 0 Z " fill="#1B127A" transform="translate(603,323)"/>
<path d="M0 0 C2 2 2 2 2.125 4.625 C2.08375 5.40875 2.0425 6.1925 2 7 C0.68 6.01 -0.64 5.02 -2 4 C-1.34 2.68 -0.68 1.36 0 0 Z " fill="#1E157E" transform="translate(302,248)"/>
<path d="M0 0 C1.98 1.65 3.96 3.3 6 5 C5.34 5.66 4.68 6.32 4 7 C2 5.75 2 5.75 0 4 C0 2.68 0 1.36 0 0 Z " fill="#1A0F76" transform="translate(764,187)"/>
<path d="M0 0 C1.65 0 3.3 0 5 0 C3.35 1.98 1.7 3.96 0 6 C-1 3 -1 3 0 0 Z " fill="#271B8B" transform="translate(117,185)"/>
<path d="M0 0 C0 3.10551666 -0.5393715 4.35261084 -2 7 C-3.32 6.34 -4.64 5.68 -6 5 C-4.02 3.35 -2.04 1.7 0 0 Z " fill="#DFDEF8" transform="translate(369,180)"/>
<path d="M0 0 C0.33 0.99 0.66 1.98 1 3 C-1.97 5.475 -1.97 5.475 -5 8 C-5.66 7.67 -6.32 7.34 -7 7 C-4.69 4.69 -2.38 2.38 0 0 Z " fill="#120770" transform="translate(118,169)"/>
</svg>
